<?xml version="1.0" encoding="utf-8"?>
<!-- Generator: Adobe Illustrator 24.1.2, SVG Export Plug-In . SVG Version: 6.00 Build 0)  -->
<svg version="1.1" id="Camada_1" xmlns="http://www.w3.org/2000/svg" xmlns:xlink="http://www.w3.org/1999/xlink" x="0px" y="0px"
	 viewBox="0 0 447 200" style="enable-background:new 0 0 447 200;" xml:space="preserve">
<g>
	<g>
		<g>
			<path d="M151.12,126.36V1.94h11.07v124.42H151.12z"/>
			<path d="M247.7,117.12c-1.08,3.08-3.49,5.66-7.24,7.74c-3.74,2.08-7.91,3.16-12.48,3.16c-6.58,0-12.15-2-16.64-5.99
				c-4.49-3.91-6.74-8.82-6.74-14.73v-64.5h-11.24v-1.66h11.24V18.17h11.07v22.97h27.3v1.66h-27.3v67.33
				c0,4.41,1.41,8.16,4.33,11.15c2.83,3.08,6.32,4.58,10.49,4.58c3.16,0,6.24-1,9.32-2.91c3.08-1.91,5.08-4.24,6.08-6.99
				L247.7,117.12z"/>
			<path d="M336.88,40.31h11.07v86.05h-11.07V109.3c-2.91,5.58-7.41,10.07-13.32,13.48c-5.99,3.5-12.4,5.24-19.22,5.24
				c-8.91,0-16.23-2.75-22.06-8.32c-5.91-5.58-8.82-12.57-8.82-20.97V40.31h11.07v61.34c0,6.74,2.08,12.32,6.16,16.73
				s9.4,6.66,15.81,6.66c6.16,0,12.07-1.83,17.81-5.58c5.66-3.74,9.82-8.49,12.57-14.4V40.31z"/>
		</g>
		<path d="M436.13,88.08c-3.08-2.08-5.91-3.74-8.41-4.99c-2.5-1.25-5.91-2.66-10.24-4.41c-3.24-1.25-5.83-2.33-7.66-3.25
			c-1.83-0.83-3.99-1.91-6.57-3.33c-2.58-1.33-4.49-2.66-5.82-3.99c-2.66-2.58-4.99-6.32-4.99-10.4c0-4.66,2.16-8.57,6.57-11.82
			c4.33-3.16,9.74-4.74,16.23-4.74c9.9,0,16.98,2.58,21.31,7.66h-0.12c0.95,0.97,1.75,2.1,2.37,3.33c0.2-0.01,0.39-0.03,0.59-0.03
			c0.97,0,1.91,0.11,2.81,0.3c-1.12-3.08-3.61-5.78-7.48-8.1c-5.49-3.25-12.23-4.83-20.14-4.83c-8.99,0-16.31,2.08-22.05,6.24
			c-5.74,4.24-8.66,9.65-8.66,16.39c0,6.74,3.25,12.4,9.57,16.81c3.16,2.25,5.99,3.91,8.57,5.16c2.58,1.25,5.91,2.75,10.15,4.41
			c4.24,1.75,7.41,3.08,9.57,4.08c2.16,1.08,4.66,2.41,7.41,4.16c5.58,3.5,7.74,7.49,7.74,12.73c0,4.74-2.16,8.74-6.49,11.98
			c-4.41,3.25-10.07,4.91-16.98,4.91c-5.49,0-10.57-0.92-15.15-2.66c-4.58-1.75-8.07-4.16-10.32-7.07c0.03,0.01,0.06,0.01,0.09,0.02
			c-0.92-1.17-1.65-2.49-2.14-3.92c-1.35-0.01-2.65-0.22-3.87-0.6c0.94,4.09,4.01,7.57,9.25,10.5c6.33,3.58,13.9,5.41,22.8,5.41
			c9.57,0,17.14-2.16,22.89-6.41c5.66-4.24,8.49-9.82,8.49-16.73C445.45,97.82,442.37,92.32,436.13,88.08z"/>
		<g>
			<path d="M57.32,20.42l-1.31-3.35l5.72-15.13l50.7,108.88c0,0,7.56,13.86,12.81,15.54H98.6c5.25-1.68,5.63-8.4,3.11-15.33
				L57.32,20.42"/>
			<path d="M25.07,98.39c-4.95,20.15,7.83,25.21,16.44,27.97H2c9.89-3.3,16.65-13.6,23.25-29.26L25.07,98.39z"/>
			<path d="M57.32,20.42"/>
		</g>
		<path d="M8.16,102.2c2.17-5.26,5.63-10.05,10-13.85c4.38-3.81,9.56-6.63,14.97-8.65c5.41-2.06,11.06-3.35,16.71-4.31
			c5.66-0.97,11.36-1.51,17.04-1.98c5.68-0.46,11.36-0.72,17-1.11c5.65-0.33,11.28-0.78,16.85-1.51c2.78-0.37,5.55-0.84,8.27-1.46
			c2.73-0.61,5.42-1.36,8.01-2.4c2.59-1.01,5.09-2.29,7.38-3.89c2.27-1.63,4.32-3.6,6.02-5.88c-1.4,2.48-3.26,4.72-5.44,6.61
			c-2.2,1.88-4.69,3.4-7.3,4.66c-5.25,2.49-10.9,3.9-16.54,4.92c-11.32,1.98-22.73,2.4-34.01,3.28c-5.64,0.39-11.25,0.96-16.82,1.75
			c-5.56,0.8-11.05,1.95-16.36,3.66c-5.28,1.75-10.39,4.13-14.83,7.51C14.66,92.89,10.95,97.25,8.16,102.2z"/>
	</g>
	<g>
		<path d="M166.48,148.12c-0.08,0.33-0.16,0.65-0.25,0.96c0.35,0.29,0.66,0.61,0.92,0.98c0.08-0.32,0.17-0.64,0.25-0.96
			c0.23-1.03,0.44-2.02,0.63-2.97c0.27-1.33,0.49-2.54,0.66-3.6c0.17-1.07,0.35-2.04,0.54-2.92c-0.08,1.14-0.14,2.28-0.2,3.4
			c-0.06,1.13-0.09,2.24-0.09,3.35c-0.11,8.77,0.9,14.05,3.03,15.85c0.15,0.08,0.29,0.11,0.4,0.11c0.19,0,0.34-0.06,0.46-0.17
			c0.23-0.34,0.19-0.61-0.11-0.8c-1.03-0.88-1.74-2.69-2.12-5.43c-0.38-2.44-0.55-5.61-0.51-9.5c0.04-1.75,0.11-3.56,0.23-5.41
			c0.12-1.85,0.24-3.66,0.37-5.44s0.29-3.46,0.46-5.06s0.33-3.07,0.49-4.41l0.06-0.29c0-0.34-0.17-0.55-0.51-0.63
			c-0.27,0-0.48,0.11-0.63,0.34v0.11c-0.23,1.11-0.43,2.09-0.6,2.95c-0.17,0.86-0.33,1.66-0.46,2.4c-0.13,0.74-0.26,1.47-0.37,2.17
			c-0.11,0.71-0.23,1.44-0.34,2.2c-0.23,1.3-0.48,2.75-0.74,4.35c-0.27,1.6-0.63,3.66-1.09,6.18l-0.29,1.2L166.48,148.12z"/>
		<path d="M178.03,155.38c-1.22,0-2.25-0.17-3.09-0.52c-0.42-0.19-0.78-0.41-1.09-0.66c-0.31-0.25-0.55-0.56-0.74-0.94
			c-0.76-1.56-0.69-3.13,0.23-4.69c0.42-0.76,0.99-1.41,1.72-1.95s1.41-0.8,2.06-0.8c0.53,0,0.92,0.18,1.17,0.54
			c0.25,0.36,0.29,0.81,0.14,1.34c-0.23,0.76-1.11,1.58-2.63,2.46c-0.27,0.19-0.52,0.35-0.74,0.49s-0.44,0.24-0.63,0.31
			c-0.23,0.11-0.44,0.21-0.63,0.29h-0.06c0,0.57,0.19,1.16,0.57,1.77c0.57,0.76,1.76,1.16,3.58,1.2c1.81,0.04,4.09-0.32,6.84-1.09
			c2.36-0.65,4.54-1.37,6.52-2.17s3.41-1.51,4.29-2.12c0.34-0.19,0.61-0.15,0.8,0.12c0.23,0.31,0.19,0.57-0.11,0.8
			c-0.95,0.65-2.44,1.39-4.46,2.23c-2.02,0.84-4.27,1.58-6.75,2.23c-1.11,0.3-2.27,0.57-3.49,0.8
			C180.3,155.27,179.14,155.38,178.03,155.38z M177.12,146.97c-0.31,0-0.74,0.18-1.32,0.54s-1.07,0.91-1.49,1.63
			c-0.08,0.11-0.14,0.23-0.2,0.34c-0.06,0.11-0.11,0.25-0.14,0.4c0.65-0.3,1.33-0.71,2.03-1.2c0.71-0.5,1.15-0.95,1.34-1.37
			C177.42,147.09,177.35,146.97,177.12,146.97z"/>
		<path d="M232.55,148.86c0.27-0.19,0.5-0.14,0.69,0.14c0.19,0.29,0.15,0.52-0.11,0.71c-0.8,0.57-1.7,1.07-2.69,1.49
			c-0.99,0.42-2.01,0.75-3.06,1c-1.05,0.25-2.09,0.44-3.12,0.57s-1.98,0.2-2.86,0.2c-1.91,0-3.26-0.5-4.06-1.49
			c-0.5-0.57-0.78-1.19-0.86-1.86c-0.08-0.67-0.08-1.27,0-1.8c-0.88,0.61-1.89,1.13-3.03,1.57c-1.14,0.44-2.29,0.82-3.43,1.14
			c-1.14,0.32-2.22,0.6-3.23,0.83c-1.01,0.23-1.8,0.44-2.37,0.63c0.04,0.19,0.06,0.36,0.06,0.52c0,0.15,0,0.32,0,0.51
			c-0.04,0.34-0.11,0.77-0.2,1.29c-0.1,0.51-0.3,1.06-0.6,1.63c-0.65,1.26-1.77,2.33-3.38,3.2c-0.73,0.38-1.53,0.7-2.4,0.94
			c-0.88,0.25-1.7,0.37-2.46,0.37c-0.8,0-1.45-0.13-1.94-0.4c-0.57-0.31-0.9-0.82-0.97-1.54c-0.08-1.53,0.69-2.86,2.29-4
			c1.33-0.99,3.2-1.85,5.61-2.57c0.42-0.15,0.83-0.29,1.23-0.4s0.81-0.23,1.23-0.34c-0.34-0.5-0.89-0.83-1.63-1
			c-0.74-0.17-1.61-0.29-2.6-0.37c-0.31-0.04-0.61-0.07-0.92-0.09c-0.31-0.02-0.57-0.07-0.8-0.14c-0.65-0.15-1.17-0.44-1.57-0.86
			c-0.4-0.42-0.64-0.9-0.72-1.43c0-0.23,0.03-0.49,0.09-0.77c0.06-0.29,0.22-0.6,0.49-0.94c0.27-0.34,0.66-0.7,1.17-1.06
			s1.21-0.7,2.09-1c1.22-0.5,1.95-0.51,2.17-0.06c0.27,0.38,0.13,0.84-0.4,1.37c-0.31,0.23-0.57,0.21-0.8-0.06
			c-0.11-0.11-0.17-0.23-0.17-0.34l-0.4,0.11c-0.99,0.42-1.76,0.86-2.32,1.32c-0.55,0.46-0.81,0.9-0.77,1.32
			c0.08,0.65,0.53,1.07,1.37,1.26c0.19,0.08,0.43,0.13,0.71,0.14c0.29,0.02,0.58,0.05,0.89,0.09c0.61,0.04,1.24,0.11,1.89,0.2
			c0.65,0.1,1.26,0.28,1.83,0.54c0.69,0.34,1.22,0.84,1.6,1.49c1.3-0.38,2.53-0.7,3.69-0.94c1.16-0.25,2.28-0.52,3.35-0.83
			c1.07-0.3,2.09-0.7,3.06-1.17c0.97-0.48,1.93-1.12,2.89-1.92c0.23-0.23,0.45-0.23,0.66,0c0.21,0.23,0.28,0.46,0.2,0.69
			c-0.15,0.57-0.25,1.07-0.29,1.49c-0.04,0.42-0.03,0.86,0.03,1.32c0.06,0.46,0.24,0.86,0.54,1.2c0.31,0.34,0.73,0.63,1.29,0.86
			c0.55,0.23,1.21,0.34,1.97,0.34c0.8,0,1.68-0.06,2.63-0.17s1.94-0.29,2.95-0.54s1.99-0.56,2.95-0.94
			C230.93,149.91,231.79,149.43,232.55,148.86z M203.26,152.29c-0.42,0.11-0.84,0.23-1.26,0.34c-0.42,0.11-0.84,0.25-1.26,0.4
			c-4.84,1.49-7.21,3.3-7.09,5.43c0,0.27,0.13,0.46,0.4,0.57c0.54,0.3,1.36,0.36,2.49,0.17c1.12-0.19,2.18-0.55,3.17-1.09
			c0.76-0.42,1.38-0.86,1.86-1.32c0.48-0.46,0.84-0.91,1.09-1.34c0.25-0.44,0.42-0.88,0.51-1.32c0.09-0.44,0.14-0.83,0.14-1.17
			C203.32,152.67,203.3,152.45,203.26,152.29z M217.79,144.57c-0.04,0-0.08-0.01-0.14-0.03s-0.16-0.07-0.31-0.14
			c-0.34-0.19-0.42-0.46-0.23-0.8c0.08-0.15,0.19-0.25,0.34-0.29c0.15-0.04,0.29-0.02,0.4,0.06l0.23,0.11
			c0.34,0.19,0.42,0.46,0.23,0.8C218.19,144.48,218.02,144.57,217.79,144.57z"/>
		<path d="M277.93,151.32c-1.74,0.53-3.39,0.98-4.94,1.32c-1.72,0.38-3.21,0.66-4.49,0.83c-1.28,0.17-2.18,0.26-2.72,0.26
			c-1.14,0.04-1.97-0.11-2.49-0.43s-0.89-0.74-1.12-1.26c-0.23-0.52-0.38-1.07-0.46-1.66c-0.08-0.59-0.23-1.12-0.46-1.57
			c-0.31-0.61-0.76-0.96-1.37-1.06c-0.61-0.09-1.2,0.12-1.77,0.66c-0.27,0.23-0.53,0.51-0.77,0.86c-0.25,0.34-0.53,0.73-0.83,1.14
			c-0.19,0.31-0.38,0.61-0.57,0.92c-0.19,0.31-0.36,0.61-0.51,0.92c-0.04-0.61-0.09-1.21-0.14-1.8c-0.06-0.59-0.16-1.17-0.31-1.74
			c-0.08-0.19-0.18-0.32-0.32-0.37c-0.13-0.06-0.27-0.07-0.4-0.03s-0.25,0.11-0.34,0.23s-0.12,0.23-0.09,0.34
			c0.11,0.54,0.23,1.3,0.34,2.29c0.08,0.76,0.12,1.45,0.14,2.06c0.02,0.61,0.03,0.99,0.03,1.14c0,0.38,0.14,0.63,0.43,0.74
			c0.29,0.11,0.52-0.04,0.71-0.46c0.61-1.3,1.15-2.33,1.63-3.09s0.89-1.34,1.23-1.75c0.34-0.4,0.63-0.66,0.86-0.77
			c0.23-0.11,0.38-0.17,0.46-0.17c0.34,0.04,0.55,0.39,0.63,1.06c0.08,0.67,0.25,1.39,0.51,2.17c0.27,0.78,0.76,1.47,1.49,2.06
			c0.72,0.59,1.91,0.83,3.55,0.71c0.53-0.04,1.46-0.15,2.77-0.34c1.32-0.19,2.85-0.48,4.61-0.86c1.54-0.34,3.19-0.77,4.92-1.29
			C278.05,152.04,277.97,151.68,277.93,151.32z"/>
		<path d="M308.55,146.89c-0.09-0.16-0.18-0.29-0.26-0.38c-0.15-0.15-0.31-0.27-0.46-0.34c-0.19-0.08-0.42-0.11-0.69-0.11
			c-0.12,0-0.25,0.04-0.38,0.12c0.14,0.39,0.25,0.8,0.3,1.22c0.01-0.01,0.02-0.02,0.02-0.03c0.11-0.11,0.19-0.17,0.23-0.17
			c0.15,0.19,0.29,0.42,0.4,0.69c0.11,0.27,0.24,0.65,0.37,1.14c0.13,0.5,0.26,1.16,0.37,2c0.23,1.6,0.4,3.53,0.51,5.78
			c-0.95,0.65-1.9,1.29-2.83,1.92c-0.94,0.63-1.88,1.29-2.83,1.97c-10.22,7.32-15.9,13.86-17.05,19.62
			c-0.38,1.91-0.45,3.75-0.2,5.52s0.79,3.4,1.63,4.89c0.8,1.33,1.8,2.45,3,3.35s2.49,1.5,3.86,1.8c0.57,0.11,1.16,0.17,1.77,0.17
			c2.37,0,4.54-0.9,6.52-2.69c1.33-1.22,2.5-2.78,3.49-4.69c1.03-2.06,1.83-4.5,2.4-7.32c0.27-1.26,0.5-2.69,0.69-4.29
			c0.19-1.6,0.35-3.32,0.49-5.15c0.13-1.83,0.23-3.72,0.29-5.66c0.06-1.95,0.07-3.89,0.03-5.83v-1.52c0-0.48-0.02-0.96-0.06-1.46
			c2.97-1.91,5.57-3.47,7.78-4.69c2.21-1.22,3.95-2.15,5.21-2.8c0.27-0.23,0.34-0.5,0.23-0.8c-0.19-0.3-0.46-0.38-0.8-0.23
			c-1.22,0.65-2.89,1.55-5.01,2.72c-2.12,1.16-4.61,2.66-7.47,4.49c-0.08-0.99-0.15-1.91-0.23-2.75c-0.08-0.84-0.15-1.62-0.23-2.35
			c-0.15-0.95-0.31-1.72-0.46-2.32c-0.15-0.59-0.31-1.07-0.46-1.43c-0.05-0.12-0.1-0.21-0.15-0.31L308.55,146.89z M309.06,166.08
			c-0.06,1.95-0.15,3.82-0.29,5.63s-0.3,3.52-0.49,5.12c-0.19,1.6-0.42,3.03-0.69,4.29c-1.03,5.19-2.86,8.98-5.49,11.38
			c-2.25,2.06-4.69,2.82-7.32,2.29c-1.22-0.27-2.36-0.8-3.43-1.6c-1.07-0.8-1.95-1.81-2.63-3.03c-0.8-1.34-1.32-2.83-1.54-4.49
			c-0.23-1.66-0.15-3.37,0.23-5.12c0.57-2.86,2.48-6.06,5.72-9.61c2.71-2.9,6.31-6.01,10.81-9.33c0.88-0.61,1.74-1.2,2.57-1.77
			s1.68-1.13,2.52-1.66c0.04,0.34,0.06,0.69,0.06,1.03v1.09C309.13,162.21,309.12,164.14,309.06,166.08z"/>
		<path d="M334.55,158.19c-2.1,0-3.95-0.65-5.55-1.95c-0.76-0.65-1.35-1.37-1.77-2.17c-0.42-0.8-0.59-1.58-0.51-2.35
			c0.08-0.53,0.2-0.98,0.37-1.34c0.17-0.36,0.35-0.68,0.54-0.94h-0.06c-0.31,0-0.7,0.02-1.17,0.06c-0.48,0.04-0.93,0.08-1.34,0.11
			c-0.88,0.08-1.54-0.04-1.97-0.34c-0.44-0.3-0.75-0.61-0.94-0.92c-0.3-0.61-0.38-1.29-0.23-2.03c0.15-0.74,0.42-1.36,0.8-1.86
			c0.88-1.11,1.68-1.6,2.4-1.49c0.5,0.11,0.82,0.4,0.97,0.86c0.19,0.54,0.14,1.22-0.14,2.06c-0.29,0.84-0.79,1.7-1.52,2.57H325
			c1.14-0.11,1.98-0.17,2.52-0.17c0.3,0,0.57,0.03,0.8,0.08c0.23,0.06,0.42,0.18,0.57,0.37c0.11,0.23,0.12,0.45,0.03,0.66
			c-0.1,0.21-0.2,0.41-0.31,0.6c-0.15,0.23-0.3,0.49-0.43,0.77c-0.13,0.29-0.24,0.64-0.32,1.06c-0.08,0.53,0.06,1.12,0.4,1.77
			c0.34,0.65,0.84,1.24,1.49,1.77c0.99,0.8,2.13,1.32,3.43,1.54c1.3,0.23,2.67,0.13,4.12-0.29c0.8-0.23,1.73-0.58,2.77-1.06
			c1.05-0.48,2.13-1,3.23-1.57c1.11-0.57,2.17-1.15,3.2-1.75c1.03-0.59,1.96-1.13,2.8-1.63c0.84-0.5,1.51-0.91,2-1.23
			c0.5-0.32,0.76-0.49,0.8-0.49c0.34-0.19,0.61-0.11,0.8,0.23c0.23,0.31,0.17,0.55-0.17,0.74c-0.08,0.04-0.38,0.23-0.92,0.57
			c-0.54,0.34-1.23,0.76-2.09,1.26c-0.86,0.5-1.81,1.05-2.86,1.66s-2.12,1.19-3.2,1.75c-1.09,0.55-2.17,1.07-3.23,1.54
			c-1.07,0.48-2.02,0.83-2.86,1.06c-0.53,0.15-1.04,0.27-1.52,0.34C335.59,158.15,335.08,158.19,334.55,158.19z M324.94,144.11
			c-0.08,0-0.23,0.07-0.46,0.2c-0.23,0.13-0.51,0.41-0.86,0.83c-0.31,0.34-0.51,0.77-0.6,1.29c-0.1,0.51-0.05,0.96,0.14,1.34
			c0.04,0.08,0.07,0.13,0.09,0.14c0.02,0.02,0.05,0.07,0.09,0.14c0.69-0.88,1.15-1.63,1.4-2.26c0.25-0.63,0.35-1.12,0.31-1.46
			C325.02,144.19,324.98,144.11,324.94,144.11z"/>
		<path d="M362.41,153.95h-0.12c-1.83,0-3.13-1.01-3.89-3.03l-0.34-0.86c-0.23,0.31-0.51,0.68-0.86,1.12
			c-0.34,0.44-0.76,0.92-1.26,1.46c-0.72,0.72-1.51,1.09-2.35,1.09c-0.57,0-1.05-0.15-1.43-0.46c-0.5-0.42-0.78-1.03-0.86-1.83
			c-0.08-0.8,0.23-1.72,0.92-2.75c0.5-0.72,1.02-1.29,1.57-1.69c0.55-0.4,1.09-0.7,1.6-0.89c0.52-0.19,1-0.31,1.46-0.34
			c0.46-0.04,0.82-0.06,1.09-0.06c0.42,0.04,0.86,0.12,1.32,0.23c0.46,0.11,0.76,0.32,0.92,0.63c0.15,0.34,0.06,0.61-0.29,0.8
			c-0.31,0.15-0.55,0.1-0.74-0.17c-0.08-0.08-0.32-0.16-0.74-0.26c-0.42-0.09-0.92-0.1-1.49-0.03c-0.54,0.08-1.14,0.28-1.8,0.6
			s-1.33,0.94-1.97,1.86c-0.5,0.72-0.73,1.34-0.71,1.86c0.02,0.51,0.18,0.89,0.49,1.12c0.23,0.19,0.54,0.27,0.94,0.23
			s0.81-0.29,1.23-0.74c0.46-0.46,0.86-0.89,1.2-1.29c0.34-0.4,0.63-0.75,0.86-1.06c0.27-0.34,0.48-0.67,0.63-0.97v-0.4
			c0-0.42,0.19-0.63,0.57-0.63c0.38,0,0.57,0.19,0.57,0.57c0.04,0.27,0.08,0.54,0.11,0.8c0.04,0.23,0.09,0.49,0.14,0.77
			c0.06,0.29,0.16,0.58,0.31,0.89c0.57,1.53,1.51,2.29,2.8,2.29h0.12c0.99,0,2.13-0.21,3.43-0.63s2.52-0.88,3.66-1.37
			c1.14-0.5,2.54-1.16,4.18-2c0.34-0.15,0.61-0.08,0.8,0.23c0.11,0.31,0.04,0.57-0.23,0.8c-0.08,0.04-0.54,0.28-1.4,0.72
			c-0.86,0.44-1.89,0.91-3.09,1.4c-1.2,0.5-2.47,0.95-3.8,1.37C364.62,153.74,363.44,153.95,362.41,153.95z"/>
		<path d="M401.87,148.86c0.27-0.19,0.5-0.14,0.69,0.14c0.19,0.29,0.15,0.52-0.11,0.71c-0.8,0.57-1.7,1.07-2.69,1.49
			c-0.99,0.42-2.01,0.75-3.06,1c-1.05,0.25-2.09,0.44-3.12,0.57c-1.03,0.13-1.98,0.2-2.86,0.2c-1.91,0-3.26-0.5-4.06-1.49
			c-0.42-0.5-0.68-1.04-0.77-1.63c-0.09-0.59-0.12-1.14-0.08-1.66c0.04-0.51,0.1-0.94,0.2-1.29c0.09-0.34,0.14-0.53,0.14-0.57
			c0.15-0.38,0.4-0.5,0.74-0.34c0.38,0.12,0.5,0.36,0.34,0.74c-0.15,0.57-0.25,1.07-0.29,1.49c-0.04,0.42-0.03,0.86,0.03,1.32
			c0.06,0.46,0.24,0.86,0.54,1.2c0.3,0.34,0.73,0.63,1.29,0.86c0.55,0.23,1.21,0.34,1.97,0.34c0.8,0,1.68-0.06,2.63-0.17
			c0.95-0.11,1.93-0.29,2.95-0.54c1.01-0.25,1.99-0.56,2.95-0.94C400.25,149.91,401.11,149.43,401.87,148.86z M387.11,144.57
			c-0.04,0-0.09-0.01-0.14-0.03c-0.06-0.02-0.16-0.07-0.31-0.14c-0.34-0.19-0.42-0.46-0.23-0.8c0.08-0.15,0.19-0.25,0.34-0.29
			c0.15-0.04,0.29-0.02,0.4,0.06l0.23,0.11c0.34,0.19,0.42,0.46,0.23,0.8C387.51,144.48,387.34,144.57,387.11,144.57z"/>
		<path d="M407.36,155.1h-0.46h-0.11c-0.23,0-0.54-0.02-0.92-0.06c-0.38-0.04-0.79-0.11-1.23-0.23c-0.44-0.11-0.86-0.28-1.26-0.49
			c-0.4-0.21-0.75-0.51-1.06-0.89c-0.76-0.95-0.97-2.29-0.63-4c0.57-2.86,1.51-4.37,2.8-4.52c1.14-0.19,2.33,0.76,3.55,2.86
			c0.19,0.34,0.11,0.61-0.23,0.8c-0.34,0.23-0.59,0.15-0.74-0.23c-0.95-1.64-1.75-2.4-2.4-2.29c-0.19,0.04-0.36,0.13-0.51,0.29
			c-0.15,0.15-0.29,0.32-0.4,0.51c-0.34,0.65-0.67,1.58-0.97,2.8c-0.23,1.33-0.1,2.34,0.4,3.03c0.23,0.3,0.5,0.54,0.83,0.72
			c0.32,0.17,0.66,0.29,1,0.37c0.34,0.08,0.68,0.12,1,0.14c0.32,0.02,0.58,0.03,0.77,0.03h0.17c1.03,0.04,2.16-0.06,3.4-0.29
			c1.24-0.23,2.48-0.53,3.72-0.92c1.24-0.38,2.43-0.79,3.58-1.23c1.14-0.44,2.16-0.86,3.06-1.26c0.9-0.4,1.9-0.87,3-1.4
			c0.38-0.15,0.64-0.07,0.77,0.26c0.13,0.32,0.05,0.58-0.26,0.77c-0.04,0-0.55,0.25-1.54,0.74c-0.99,0.5-2.4,1.09-4.23,1.77
			C413.77,154.2,410.07,155.1,407.36,155.1z"/>
		<path d="M445.08,150.44c-1.56,0.38-3.06,0.69-4.51,0.91c-3.11,0.48-5.9,0.68-8.38,0.6c0.27-0.42,0.46-0.88,0.57-1.37
			c0.23-0.76,0.2-1.49-0.09-2.17s-0.81-1.3-1.57-1.83c-0.5-0.34-1.04-0.62-1.63-0.83c-0.59-0.21-1.19-0.34-1.8-0.4
			c-0.61-0.06-1.18-0.03-1.72,0.09c-0.54,0.11-0.99,0.31-1.37,0.57c-0.31,0.19-0.6,0.54-0.89,1.03c-0.29,0.5-0.29,1.22-0.03,2.17
			c0.27,1.07,0.99,1.93,2.17,2.57c0.04,0.04,0.09,0.06,0.17,0.06c-0.19,0.57-0.32,1.08-0.4,1.52s-0.02,0.81,0.17,1.12
			c0.23,0.3,0.5,0.49,0.83,0.54c0.32,0.06,0.64,0.09,0.94,0.09c0.69,0,1.36-0.19,2.03-0.57c0.67-0.38,1.27-0.88,1.8-1.49
			c0.92,0.08,1.83,0.09,2.75,0.03c0.92-0.06,1.79-0.12,2.63-0.2c2.21-0.19,4.5-0.51,6.86-0.97c0.55-0.11,1.1-0.23,1.66-0.35
			C445.19,151.18,445.12,150.81,445.08,150.44z M427.56,153.95c-0.34,0-0.56-0.02-0.66-0.06c-0.1-0.04-0.14-0.08-0.14-0.12
			c-0.08-0.08-0.08-0.26,0-0.54c0.08-0.29,0.17-0.6,0.29-0.94c0.92,0.3,1.87,0.51,2.86,0.63
			C429.1,153.61,428.32,153.95,427.56,153.95z M431.68,150.29c-0.11,0.53-0.38,1.07-0.8,1.6c-1.3-0.11-2.44-0.32-3.43-0.63
			c0.11-0.34,0-0.59-0.34-0.74c-0.34-0.11-0.57-0.02-0.69,0.29c-0.88-0.5-1.43-1.14-1.66-1.95c-0.23-0.92-0.08-1.56,0.46-1.94
			c0.27-0.19,0.62-0.32,1.06-0.4s0.91-0.09,1.4-0.03c0.5,0.06,0.98,0.18,1.46,0.37c0.48,0.19,0.91,0.42,1.29,0.69
			c0.42,0.27,0.78,0.63,1.09,1.09C431.81,149.09,431.87,149.64,431.68,150.29z"/>
		<path d="M386.11,149.29c-2.15,2.13-3.98,3.04-5.55,3.2c-1.81,0.19-3.21-0.66-4.25-1.65c-0.89-0.84-1.54-1.79-1.96-2.36
			c0.77-0.94,1.49-2.49,2.06-4.28c0.95-2.95,1.54-6.57,1.51-9.06c-0.02-1.15-0.18-2.07-0.47-2.62c-0.29-0.54-0.7-0.79-1.2-0.77
			c-0.24,0.01-0.44,0.19-0.48,0.43l-2.6,16.22c-1.23,8.12-2.48,17.32-2.79,22.61c-0.08,1.41-0.09,2.54-0.02,3.32
			c0.06,0.68,0.22,1.13,0.39,1.34c0.18,0.22,0.41,0.3,0.64,0.27c0.54-0.06,1.09-0.45,1.57-1.2c0.59-0.9,1.12-2.35,1.56-4.14
			c0.99-4.05,1.53-9.86,1.29-14.69c-0.09-1.74-0.28-3.35-0.59-4.72c0.12,0.13,0.25,0.26,0.39,0.38c1.24,1.17,2.91,2.14,5.06,1.92
			c1.65-0.17,3.63-1.08,5.92-3.27C386.4,149.93,386.24,149.62,386.11,149.29z M376.63,133.22L376.63,133.22
			c0.17,0.47,0.25,1.14,0.26,1.94c0.04,2.39-0.54,5.88-1.46,8.73c-0.27,0.85-0.57,1.63-0.89,2.32
			C375.46,140.23,376.3,135.17,376.63,133.22z M373.53,170.37c-0.41,1.65-0.88,3-1.42,3.83c-0.21,0.32-0.4,0.56-0.62,0.67
			c-0.02-0.07-0.04-0.16-0.06-0.24c-0.12-0.72-0.11-1.95-0.02-3.55c0.28-4.9,1.38-13.16,2.52-20.79c0.48,1.5,0.75,3.49,0.86,5.69
			C375.03,160.71,374.5,166.4,373.53,170.37z"/>
		<g>
			<path d="M358.32,142.82c-0.03-0.06-0.05-0.11-0.07-0.16c0-0.12,0.03-0.22,0.09-0.3l0.02-0.02c0.09-0.09,0.2-0.19,0.32-0.3
				l0.02-0.02l0.05-0.05c0.11-0.09,0.2-0.17,0.28-0.23c0.02-0.02,0.04-0.04,0.07-0.07c0.09-0.08,0.15-0.13,0.18-0.16l0.16-0.12
				c0.29-0.29,0.54-0.53,0.74-0.72c0.06-0.05,0.12-0.1,0.17-0.15c0.05-0.05,0.11-0.11,0.17-0.15c0.11-0.08,0.22-0.07,0.32,0.02
				c0.03,0.05,0.05,0.08,0.05,0.11c0,0.08-0.02,0.14-0.05,0.19c-0.02,0.03-0.11,0.15-0.28,0.37c-0.19,0.23-0.4,0.49-0.65,0.78
				c-0.06,0.06-0.15,0.15-0.28,0.25c-0.03,0.03-0.08,0.07-0.14,0.12c-0.09,0.09-0.18,0.18-0.28,0.25c-0.03,0.03-0.05,0.06-0.07,0.09
				c-0.06,0.05-0.12,0.1-0.18,0.15c-0.06,0.05-0.12,0.1-0.19,0.15C358.64,143,358.48,142.98,358.32,142.82z"/>
		</g>
		<path d="M306.63,150.05c-2.82,2.72-4.9,4.11-6.35,4.63c-1.54,0.55-2.49,0.18-2.97-0.53c-0.49-0.74-0.48-2.02,0.06-3.36
			c1.17-2.9,5.47-6.44,10.02-4.66c0.26,0.1,0.39,0.4,0.29,0.67c-0.1,0.26-0.4,0.39-0.67,0.29c-4.64-1.82-8.79,2.79-9.03,5.41
			c-0.05,0.52,0.02,0.97,0.3,1.22c0.29,0.26,0.77,0.27,1.44,0.06c1.78-0.55,4.62-2.61,8.8-7.16c0.19-0.21,0.52-0.22,0.72-0.03
			c0.18,0.17,0.22,0.43,0.1,0.63l-0.8,1.24L306.63,150.05z"/>
		<g>
			<path d="M254.99,151.15c-0.06-0.43-0.07-0.86-0.04-1.29c-0.94,0.51-2.02,1.1-3.27,1.78c-2.12,1.16-4.61,2.66-7.47,4.49
				c-0.08-0.99-0.15-1.91-0.23-2.75c-0.08-0.84-0.15-1.62-0.23-2.35c-0.15-0.95-0.31-1.72-0.46-2.32c-0.15-0.59-0.31-1.07-0.46-1.43
				c-0.05-0.12-0.1-0.21-0.15-0.31l-0.04-0.09c-0.09-0.16-0.18-0.29-0.26-0.38c-0.15-0.15-0.31-0.27-0.46-0.34
				c-0.19-0.08-0.42-0.11-0.69-0.11c-0.12,0-0.25,0.04-0.38,0.12c0.14,0.39,0.25,0.8,0.3,1.22c0.01-0.01,0.02-0.02,0.02-0.03
				c0.11-0.11,0.19-0.17,0.23-0.17c0.15,0.19,0.29,0.42,0.4,0.69c0.11,0.27,0.24,0.65,0.37,1.14c0.13,0.5,0.26,1.16,0.37,2
				c0.23,1.6,0.4,3.53,0.51,5.78c-0.95,0.65-1.9,1.29-2.83,1.92c-0.94,0.63-1.88,1.29-2.83,1.97c-10.22,7.32-15.9,13.86-17.05,19.62
				c-0.38,1.91-0.45,3.75-0.2,5.52s0.79,3.4,1.63,4.89c0.8,1.33,1.8,2.45,3,3.35s2.49,1.5,3.86,1.8c0.57,0.11,1.16,0.17,1.77,0.17
				c2.37,0,4.54-0.9,6.52-2.69c1.33-1.22,2.5-2.78,3.49-4.69c1.03-2.06,1.83-4.5,2.4-7.32c0.27-1.26,0.5-2.69,0.69-4.29
				c0.19-1.6,0.35-3.32,0.49-5.15c0.13-1.83,0.23-3.72,0.29-5.66c0.06-1.95,0.07-3.89,0.03-5.83v-1.52c0-0.48-0.02-0.96-0.06-1.46
				c2.97-1.91,5.57-3.47,7.78-4.69C253.15,152.15,254.13,151.61,254.99,151.15z M243.16,166.08c-0.06,1.95-0.15,3.82-0.29,5.63
				s-0.3,3.52-0.49,5.12c-0.19,1.6-0.42,3.03-0.69,4.29c-1.03,5.19-2.86,8.98-5.49,11.38c-2.25,2.06-4.69,2.82-7.32,2.29
				c-1.22-0.27-2.36-0.8-3.43-1.6c-1.07-0.8-1.95-1.81-2.63-3.03c-0.8-1.34-1.32-2.83-1.54-4.49c-0.23-1.66-0.15-3.37,0.23-5.12
				c0.57-2.86,2.48-6.06,5.72-9.61c2.71-2.9,6.31-6.01,10.81-9.33c0.88-0.61,1.74-1.2,2.57-1.77s1.68-1.13,2.52-1.66
				c0.04,0.34,0.06,0.69,0.06,1.03v1.09C243.22,162.21,243.21,164.14,243.16,166.08z"/>
			<path d="M240.72,150.05c-2.82,2.72-4.9,4.11-6.35,4.63c-1.54,0.55-2.49,0.18-2.97-0.53c-0.49-0.74-0.48-2.02,0.06-3.36
				c1.17-2.9,5.47-6.44,10.02-4.66c0.26,0.1,0.39,0.4,0.29,0.67c-0.1,0.26-0.4,0.39-0.67,0.29c-4.64-1.82-8.79,2.79-9.03,5.41
				c-0.05,0.52,0.02,0.97,0.3,1.22c0.29,0.26,0.77,0.27,1.44,0.06c1.78-0.55,4.62-2.61,8.8-7.16c0.19-0.21,0.52-0.22,0.72-0.03
				c0.18,0.17,0.22,0.43,0.1,0.63l-0.8,1.24L240.72,150.05z"/>
		</g>
		<path d="M167.39,148.93c-0.19-0.22-0.36-0.45-0.51-0.69c-1.86,2.9-3.78,5.35-5.52,6.55c-1.05,0.72-2,1-2.79,0.43
			c-0.75-0.54-1.02-1.57-0.9-2.67c0.17-1.65,1.22-3.46,3.07-4.21c1.26-0.51,2.88-0.51,4.83,0.31c0.26,0.11,0.56-0.01,0.67-0.27
			c0.11-0.26-0.01-0.56-0.27-0.67c-2.27-0.96-4.15-0.91-5.61-0.32c-2.23,0.9-3.5,3.07-3.71,5.05c-0.16,1.5,0.3,2.88,1.33,3.62
			c0.87,0.62,1.87,0.64,2.96,0.15c0.96-0.42,1.99-1.26,3.05-2.4c0.86-0.93,1.75-2.07,2.63-3.33
			C166.8,149.93,167.05,149.4,167.39,148.93z"/>
	</g>
</g>
</svg>
